<svg width="173" height="67" viewBox="0 0 173 67" fill="none" xmlns="http://www.w3.org/2000/svg">
<path d="M4.49703 41.7941C5.91311 39.7696 7.54948 37.7976 9.43759 35.878H27.2593C28.3712 35.878 29.4621 35.5843 30.5216 34.9864C31.581 34.3885 32.5355 33.6437 33.3852 32.7521C34.2348 31.8605 35.0006 30.906 35.6824 29.8885C36.3537 28.871 36.8992 27.9479 37.3188 27.1088L40.7593 17.343H57.5216L55.0566 24.2451C53.7034 28.0633 52.3503 31.4514 50.9971 34.4095C49.644 37.3675 48.06 39.8431 46.2349 41.8466C44.4097 43.8501 42.2174 45.371 39.6579 46.42C37.0985 47.4689 33.9411 47.9829 30.1754 47.9829H0.531982C1.76975 45.885 3.09143 43.8186 4.49703 41.7941Z" fill="white"/>
<path d="M56.3258 0.496826H63.6056L59.1895 12.5913H42.5111L43.602 9.54929C45.5531 4.11571 50.6405 0.496826 56.3258 0.496826Z" fill="white"/>
<path d="M86.5462 0.496826L90.9518 11.6892L103.487 0.496826H122.357L108.868 12.5913H72.5217L67.665 0.496826H86.5462Z" fill="white"/>
<path d="M77.63 25.3987L74.3678 17.3323H103.571L94.5706 25.3987L86.4517 47.9722H69.5216L77.63 25.3987Z" fill="white"/>
<path d="M168.27 32.175C164.41 39.0981 157.99 44.5002 150.291 46.7344C146.127 47.9407 141.774 48.1925 137.462 48.0981C133.329 48.0037 129.071 47.9512 125.011 47.1645C120.606 46.3044 116.2 44.2065 113.725 40.2519C111.648 36.9372 111.28 32.8882 111.522 29.0491C111.637 27.1295 111.868 25.2099 112.34 23.3323C112.518 22.6295 113.903 17.3323 114.606 17.3323H132.511C130.371 19.5036 128.662 22.2624 128.378 25.3777C128.211 27.2973 128.62 29.2484 129.48 30.9687C130.246 32.5001 131.389 33.8638 132.847 34.7554C139.214 38.6155 147.606 35.4267 151.917 30.3813C154.162 27.7589 155.179 23.9092 155.179 20.4686C155.179 19.2728 155.064 18.2239 154.823 17.3323H172.288C172.225 18.8847 172.057 20.5316 171.763 22.2624C171.165 25.7763 169.969 29.1225 168.27 32.175Z" fill="white"/>
<path d="M127.256 3.85348C131.053 1.61921 134.945 0.496826 138.941 0.496826H150.585C156.816 0.496826 161.725 1.44088 165.312 3.31851C168.899 5.19614 171.102 8.29055 171.931 12.5913H140.966H140.704H117.595C120.249 9.00383 123.469 6.09824 127.256 3.85348Z" fill="white"/>
<path d="M1.87469 66.3712V58.3572H2.4726V66.3712H1.87469Z" fill="white"/>
<path d="M17.6405 59.2488L14.6195 63.9376H14.4202L11.3782 59.2488V66.3712H10.7593V58.3572C11.053 58.3572 11.1894 58.3572 11.4831 58.3572L14.5041 63.025L17.4936 58.3572H18.2384V66.3712H17.6405V59.2488Z" fill="white"/>
<path d="M27.123 63.5912V66.3604H26.5146V58.3464C27.6684 58.3464 28.8223 58.3464 29.9761 58.3464C33.4062 58.3464 33.4062 63.5912 29.9761 63.5912H27.123ZM27.123 58.9234V63.0353H29.9761C32.5985 63.0353 32.5985 58.9234 29.9761 58.9234H27.123Z" fill="white"/>
<path d="M48.0496 62.3746C48.0391 64.483 46.7175 66.5074 44.0741 66.5074C41.4307 66.5074 40.0986 64.4725 40.0986 62.3536C40.0986 60.2032 41.4202 58.2312 44.0741 58.2312C46.728 58.2312 48.0601 60.2032 48.0496 62.3746ZM40.686 62.3641C40.6965 64.1683 41.8293 65.941 44.0636 65.941C46.3189 65.941 47.4622 64.1788 47.4622 62.3641C47.4622 60.5074 46.3398 58.8081 44.0636 58.8081C41.8084 58.7976 40.6755 60.4655 40.686 62.3641Z" fill="white"/>
<path d="M62.3364 66.3712H61.5392L58.8119 63.3397H56.6511V66.3712H56.0427V58.3572C57.207 58.3572 58.3504 58.3572 59.5147 58.3572C61.2245 58.3572 62.0951 59.6054 62.1056 60.8537C62.1161 62.1544 61.2665 63.3082 59.5462 63.3082L62.3364 66.3712ZM56.6511 62.7523H59.4518C60.8259 62.7523 61.4343 61.9656 61.4448 60.8432C61.4553 59.8991 60.8259 58.9341 59.5147 58.9341H56.6511V62.7523Z" fill="white"/>
<path d="M72.4797 58.9129H69.6266V58.3674H75.9413V58.9129H73.0881V66.3709H72.4797V58.9129Z" fill="white"/>
<path d="M89.9133 66.3712L89.0427 64.3991H84.3329L83.4727 66.3712H82.8224L86.3679 58.3572H87.0287L90.5742 66.3712H89.9133ZM88.8119 63.8222L86.693 58.9446L84.5741 63.8222H88.8119Z" fill="white"/>
<path d="M104.158 65.2592C103.371 66.0564 102.322 66.4655 101.284 66.4655C98.6197 66.4655 97.235 64.5774 97.2245 62.4166C97.2036 60.2767 98.5777 58.2732 101.284 58.2732C102.322 58.2732 103.371 58.6718 104.158 59.4795L103.739 59.8466C103.067 59.1648 102.176 58.8291 101.284 58.8291C98.9868 58.8291 97.8015 60.476 97.812 62.4061C97.8329 64.2837 99.0078 65.9096 101.284 65.9096C102.176 65.9096 103.078 65.5634 103.749 64.8921L104.158 65.2592Z" fill="white"/>
<path d="M112.141 66.3712V58.3572H112.739V66.3712H112.141Z" fill="white"/>
<path d="M128.882 62.3746C128.871 64.483 127.55 66.5074 124.906 66.5074C122.253 66.5074 120.931 64.4725 120.931 62.3536C120.931 60.2032 122.253 58.2312 124.906 58.2312C127.56 58.2312 128.892 60.2032 128.882 62.3746ZM121.518 62.3641C121.529 64.1683 122.662 65.941 124.896 65.941C127.151 65.941 128.295 64.1788 128.295 62.3641C128.295 60.5074 127.172 58.8081 124.896 58.8081C122.63 58.7976 121.508 60.4655 121.518 62.3641Z" fill="white"/>
<path d="M137.127 58.3572L142.434 64.9866V58.3572H143.032V66.3712H142.791L137.473 59.7523V66.3712H136.864V58.3572H137.127Z" fill="white"/>
<path d="M151.938 62.0492H156.564V62.6052H151.938V65.7625H156.92V66.3604H151.34V58.3464H156.784V58.9338H151.938V62.0492Z" fill="white"/>
<path d="M170.158 59.899C169.581 58.955 168.658 58.8186 167.767 58.8081C166.844 58.8081 165.375 59.1543 165.375 60.434C165.375 61.4515 166.455 61.6927 167.788 61.9445C169.309 62.2382 170.893 62.5214 170.893 64.2417C170.882 66.0459 169.088 66.4865 167.767 66.4865C166.539 66.4865 165.144 65.9725 164.536 64.7452L165.081 64.4725C165.564 65.448 166.802 65.9305 167.777 65.9305C168.742 65.9305 170.295 65.6578 170.295 64.2312C170.305 63.0249 168.994 62.7627 167.704 62.5109C166.256 62.2277 164.788 61.9235 164.788 60.455C164.756 58.7557 166.487 58.2312 167.788 58.2312C168.91 58.2312 169.896 58.4095 170.672 59.5948L170.158 59.899Z" fill="white"/>
</svg>